# xmcd
#
# Track frame offsets: 
#        150
#        13216
#        36463
#        51124
#        79017
#        93192
#        114714
#        125148
#        145180
#        169759
#
# Disc length: 2715 seconds
#
# Revision: 0
# Processed by: cddbd v1.5.2PL0 Copyright (c) Steve Scherf et al.
# Submitted via: ExactAudioCopy v1.3
#
DISCID=880a990a
DTITLE=John Bull Band - Memphis Money
DYEAR=2019
DGENRE=Blues
TTITLE0=Real Go (Getter)
TTITLE1=Memphis Money
TTITLE2=Too Much Woman
TTITLE3=Bring It Home
TTITLE4=Ain't Jivin' No More
TTITLE5=Can't Be Satisfied
TTITLE6=Rocket 88
TTITLE7=Gee Baby Ain't I Good to You
TTITLE8=J.B.'s Boogie
TTITLE9=My Ship Is Sinking
EXTD=
EXTT0=
EXTT1=
EXTT2=
EXTT3=
EXTT4=
EXTT5=
EXTT6=
EXTT7=
EXTT8=
EXTT9=
PLAYORDER=
